@startuml
'https://plantuml.com/class-diagram

class OpenCloseCourseEnrollmentsUI{
}

class OpenCloseCourseEnrollmentsController{
+OpenCloseCourseEnrollments(course, enrollmentsState)
+getAllCourses()
}

class CourseService{
+getAllCourses()
}


class PersistenceContext{
+repositories()
}

class RepositoryFactory{
+create()
+newTransactionalContext()
+create(TransactionalContext ctx)
}

database CourseRepository{
}

class TransactionalContext{
+beginTransaction()
+commit()
}

class Course{
+setEnrollmentsState(state)
}

OpenCloseCourseEnrollmentsUI --> OpenCloseCourseEnrollmentsController
OpenCloseCourseEnrollmentsController-->PersistenceContext
OpenCloseCourseEnrollmentsController-->TransactionalContext

CourseService --> CourseRepository
OpenCloseCourseEnrollmentsController --> Course

PersistenceContext-->RepositoryFactory

RepositoryFactory-->CourseService
@enduml